<svg id="Camada_1" data-name="Camada 1" xmlns="http://www.w3.org/2000/svg" viewBox="0 0 700.54 808.44"><defs><style>.cls-1{fill:#34002b;}.cls-2{fill:#dd0cbd;}.cls-3{fill:#00bda3;}.cls-4{fill:#00bfa4;}.cls-5{fill:#db0bbb;}.cls-6{fill:#00bea4;}.cls-7{fill:#dd0cbe;}.cls-8{fill:#dd0bbd;}</style></defs><title>simbolo2</title><path class="cls-1" d="M660.79,247.16l1.09,1c.12.55.07,1.29,1,.93l-.08,0c-.65,1.22.07,2.29.48,3.31a52.29,52.29,0,0,1,3.52,20.51c-.19,18.16-.06,36.32-.06,54.48,0,48.37-35.69,90.58-83.32,98.76-13.58,2.34-27.23,1.36-40.86,1.38-4.63,0-6.33.89-6.16,5.93.41,11.81.18,23.65.12,35.48a152.38,152.38,0,0,1-8.23,49,156.6,156.6,0,0,1-148.83,106c-60-.41-119.94-.25-179.92,0-33,.13-63-8.86-90.33-27.2-1.21-.81-2.12-2.73-4.16-1.83l0,0c.4-1.11-.18-1.21-1-1l0,0c.2-1-.51-1.17-1.15-1.43L96.5,586c-.48-1.33-.93-2.68-2.55-3l0,0c0-.69-.18-1.18-1-1l0,0a5.08,5.08,0,0,0-.39-1.85C72.8,551.78,64.2,520.1,64.29,485.64c.2-71.47.06-142.95.06-214.42,0-18.71,10.25-29,28.92-29H289.2c9.65,0,9.65,0,10.87-9.46.08-.66.32-1.29.43-1.95C303.67,211.89,307,193,309.93,174c1.41-8.95,1.13-9-7.8-9a19.36,19.36,0,0,1,.45-4.41c1-3.07-.17-3.65-3-3.64-27.89.13-55.79.15-83.68.21l-7.85-.27c.18-1.63,1.44-2.58,2.39-3.7,5.77-6.87,11.61-13.68,17.35-20.58Q261.56,92,295.29,51.39C316.53,25.84,337.71.25,359.15-25.13c4.55-5.4,8.24-11.64,14.18-15.82L372-30.09c-1.33,7.48-2.72,15-4,22.44-4.5,26.93-8.87,53.88-13.48,80.79-1.65,9.64-1.9,9.6,7.45,10.08-1.95,7.87-1.95,7.87,5.95,7.87q41.58,0,83.16,0c1.79,0,3.67-.5,5.34.6L453.19,96q-24.15,28.85-48.3,57.69-27.09,32.53-54.05,65.2c-7.32,6.92-13,15.21-20.24,23.33h7q145.73,0,291.44-.06C640,242.14,650.65,242.79,660.79,247.16Zm-101.7,128.2c0,6.33.14,12.66-.11,19-.12,3.07.77,4,3.88,4,9.65-.18,19.31.15,29-.1,22-.59,43.2-19.71,45-41.62,1.63-19.9.23-39.91.61-59.88.06-2.92-1.68-2.67-3.56-2.68-6.49,0-13-.09-19.47-.14-.08-6.32-.26-12.64-.17-19,0-2.72-.66-3.79-3.61-3.77q-35.21.15-70.4,0c-2.67,0-3.84.55-3.83,3.54q.14,48.44,0,96.85c0,2.88,1,3.71,3.74,3.66C546.45,375.1,552.77,375.29,559.09,375.36Z" transform="translate(10.7 63.67)"/><path class="cls-1" d="M586.75,693a9,9,0,0,0,.53.73c5.55,18-7.85,35-27.84,35q-266.79,0-533.57,0c-6.29,0-12.63.53-18.72-1.65l-1-.61c.5-3.82-1.45-7.42-.71-11.35C8.2,700.36,18.13,692,33.25,692H566.88C573.52,692,580.18,691.6,586.75,693Z" transform="translate(10.7 63.67)"/><path class="cls-2" d="M105.07,594.88c2-.9,3,1,4.16,1.83,27.33,18.34,57.36,27.33,90.33,27.2,60-.23,120-.39,179.92,0a156.6,156.6,0,0,0,148.83-106,152.38,152.38,0,0,0,8.23-49c.06-11.83.29-23.67-.12-35.48-.17-5,1.53-5.93,6.16-5.93,13.63,0,27.28,1,40.86-1.38,47.63-8.18,83.32-50.39,83.32-98.76,0-18.16-.13-36.32.06-54.48a52.29,52.29,0,0,0-3.52-20.51c-.41-1-1.13-2.09-.48-3.31,10.72,4.56,17.29,13.18,22.15,23.21a48.77,48.77,0,0,1,4.86,22.23c-.23,18.65-.07,37.31-.07,56,0,51.12-40,94.95-90.85,99.65-11.47,1.06-23,.44-34.44.41-4,0-5,1.24-5,5.1-.06,15.31.66,30.63-.42,45.93-2.5,35.63-15.68,66.85-39.5,93.34-28.24,31.4-63.82,48.28-105.82,51.79-1.65.14-3.32.12-5,.12-63.46,0-126.93.22-190.4-.08-39.08-.18-73.11-14.07-102.28-40C112,603.21,107.41,600.08,105.07,594.88Z" transform="translate(10.7 63.67)"/><path class="cls-3" d="M302.13,165.05c8.93,0,9.21,0,7.8,9-3,18.95-6.26,37.86-9.43,56.78-.11.66-.35,1.29-.43,1.95-1.22,9.46-1.22,9.46-10.87,9.46H93.27c-18.67,0-28.92,10.28-28.92,29,0,71.47.14,143-.06,214.42-.09,34.46,8.51,66.14,28.33,94.55A5.08,5.08,0,0,1,93,582c-2.13,1.27-2.92-.81-3.9-1.78-28.36-28-44.37-61.8-47.45-101.66-.42-5.49-.42-11-.42-16.45q0-107.65,0-215.33c0-16.93,10.77-27.66,27.81-27.66q108.92,0,217.83.12c4.53,0,6.34-1.09,7-5.57,2.14-14.58,4.62-29.12,7-43.68C301.26,168.37,301.7,166.71,302.13,165.05Z" transform="translate(10.7 63.67)"/><path class="cls-4" d="M586.75,693c-6.57-1.43-13.23-1-19.87-1H33.25c-15.12,0-25,8.38-27.82,23.13-.74,3.93,1.21,7.53.71,11.35-10.71-4.84-17-13-16.84-24.87.11-10.7,5.57-18.6,15.26-23.34a26,26,0,0,1,11.63-2.34q272.79,0,545.57,0C573.69,676,582.43,682,586.75,693Z" transform="translate(10.7 63.67)"/><path class="cls-5" d="M7.15,727.07c6.09,2.18,12.43,1.65,18.72,1.65q266.79,0,533.57,0c20,0,33.39-17,27.84-35,10.3,3.43,15.66,11,17,21.35s-2.86,18.65-11.38,24.46a29.44,29.44,0,0,1-16.91,5.2q-271.2-.06-542.39,0C21.37,744.73,11.17,737.88,7.15,727.07Z" transform="translate(10.7 63.67)"/><path class="cls-3" d="M660.79,247.16c-10.14-4.37-20.8-5-31.71-5q-145.71.17-291.44.06h-7c7.26-8.12,12.92-16.41,20.24-23.33l23.47.06c2.16.06,4.32.19,6.48.19q117,0,233.9.08C635.46,219.26,650.89,228.83,660.79,247.16Z" transform="translate(10.7 63.67)"/><path class="cls-6" d="M373.33-40.95c-5.94,4.18-9.63,10.42-14.18,15.82-21.44,25.38-42.62,51-63.86,76.52Q261.51,92,227.78,132.66c-5.74,6.9-11.58,13.71-17.35,20.58-1,1.12-2.21,2.07-2.39,3.7H192.33L376.16-63.67l1.12.51Q375.3-52,373.33-40.95Z" transform="translate(10.7 63.67)"/><path class="cls-7" d="M374.31,219l-23.47-.06q27-32.61,54.05-65.2Q429,124.78,453.19,96h22.25c-.16,2.42-1.89,3.61-3.08,5q-48.11,57.78-96.25,115.52C375.47,217.32,374.91,218.15,374.31,219Z" transform="translate(10.7 63.67)"/><path class="cls-2" d="M362,83.22c-9.35-.48-9.1-.44-7.45-10.08,4.61-26.91,9-53.86,13.48-80.79,1.25-7.49,2.64-15,4-22.44L390.2-51.45,368,82.89Z" transform="translate(10.7 63.67)"/><path class="cls-8" d="M302.13,165.05c-.43,1.66-.87,3.32-1.3,5H206.26c2.57-5.17,6.91-8.41,9.63-12.82,27.89-.06,55.79-.08,83.68-.21,2.84,0,4.05.57,3,3.64A19.36,19.36,0,0,0,302.13,165.05Z" transform="translate(10.7 63.67)"/><path class="cls-4" d="M362,83.22l6-.33,89.34.17h6.38l-7.27,8.66c-1.67-1.1-3.55-.6-5.34-.6q-41.58-.06-83.16,0C360,91.09,360,91.09,362,83.22Z" transform="translate(10.7 63.67)"/><path class="cls-3" d="M94,583c1.62.36,2.07,1.71,2.55,3C95,585.59,93.17,585.38,94,583Z" transform="translate(10.7 63.67)"/><path class="cls-2" d="M662.9,249.12c-.95.36-.9-.38-1-.93C662.46,248.23,662.87,248.47,662.9,249.12Z" transform="translate(10.7 63.67)"/><path class="cls-3" d="M93,582c.83-.13,1,.36,1,1l-1.09,0Z" transform="translate(10.7 63.67)"/><path class="cls-2" d="M103,592.51c.64.26,1.35.48,1.15,1.43C103.14,593.92,102.84,593.38,103,592.51Z" transform="translate(10.7 63.67)"/><path class="cls-2" d="M104.07,593.91c.86-.2,1.44-.1,1,1C104.31,595.05,104,594.7,104.07,593.91Z" transform="translate(10.7 63.67)"/><path class="cls-2" d="M559.09,375.36c-6.32-.07-12.64-.26-19-.14-2.78,0-3.75-.78-3.74-3.66q.12-48.42,0-96.85c0-3,1.16-3.55,3.83-3.54q35.21.12,70.4,0c3,0,3.65,1,3.61,3.77-.09,6.32.09,12.64.17,19l-.5.43c-16.8,0-33.6-.05-50.4-.15-2.51,0-4,.32-4,3.44.16,25.78.18,51.55.24,77.33Z" transform="translate(10.7 63.67)"/><path class="cls-4" d="M559.09,375.36l.67-.42c2.66.07,5.32.23,8,.2,22.94-.27,44.65-20,46.15-43,.82-12.57.06-25.24,0-37.86l.5-.43c6.49.05,13,.11,19.47.14,1.88,0,3.62-.24,3.56,2.68-.38,20,1,40-.61,59.88-1.8,21.91-23,41-45,41.62-9.65.25-19.31-.08-29,.1-3.11.06-4-.9-3.88-4C559.23,388,559.08,381.69,559.09,375.36Z" transform="translate(10.7 63.67)"/></svg>