<?xml version="1.0" encoding="utf-8"?>
<!-- Generator: Adobe Illustrator 26.0.2, SVG Export Plug-In . SVG Version: 6.00 Build 0)  -->
<svg version="1.1" id="maparecifeoutlet" xmlns="http://www.w3.org/2000/svg" xmlns:xlink="http://www.w3.org/1999/xlink" x="0px"
	 y="0px" viewBox="0 0 1172 690.1" style="enable-background:new 0 0 1172 690.1;" xml:space="preserve">
<style type="text/css">
	.st0{fill:#F9F2E8;}
	.st1{fill:#A5D3A5;}
	.st2{fill:#A5D1A5;}
	.st3{fill:#E0E0E0;}
</style>
<g id="Camada_4">
</g>
<g id="Camada_6">
	<g>
		<g>
			<path class="st0" d="M368.5,26.7c0,0-2.9-0.3-4.3,1.1c-1.4,1.5-2.1,1.3-2.1,1.3l-2.8,1.9l-20.4,13.5c0,0-1.5,0.9-2.8,1.1
				c-1.3,0.2-168,0.2-168,0.2l-0.1,25v64l-0.4,13.2l-1.7,15l-3.4,34.8l-2.8,21.6l-5.2,51.5c0,0,0.2,5.3,7.6,6.1
				c7.4,0.8,34.4,3.7,34.4,3.7l47.4,4.8c0,0,1.1,0.3,1.8,1.1c0.6,0.8,8.7,7.7,8.7,7.7s3.2,2.7,7.1,3.2s36.2,3.9,36.2,3.9
				s3.9,1.4,8.8-1.9c4.9-3.4,15.5-10.3,15.5-10.3s1.9-2.3,6.8-1.4c4.8,0.8,25.8,2.9,25.8,2.9l94.4,10c0,0,3.9-0.2,6.1,2.7
				c2.3,2.9,16.9,17.2,16.9,17.2s2.3,2.7,6.9,3.4s120.2,12.7,120.2,12.7s3.1,0.9,11,0.3L610,26.7H368.5z"/>
			<path class="st0" d="M1066.1,270.9l-5.2-51.5l-2.8-21.6l-3.4-34.8l-1.7-15l-0.4-13.2v-64l-0.1-24.9c0,0-166.8-0.1-168-0.2
				c-1.3-0.2-2.8-1.1-2.8-1.1L861.4,31l-2.8-1.9c0,0-0.7,0.2-2.1-1.3c-1.4-1.5-4.3-1.1-4.3-1.1H610.7L610.6,337
				c7.9,0.6,11-0.3,11-0.3s115.5-12.1,120.2-12.7s6.9-3.4,6.9-3.4s14.7-14.3,16.9-17.2c2.3-2.9,6.1-2.7,6.1-2.7l94.4-10l6.7-1.2
				c2.2,0,24.8,4.9,24.8,4.9l82.1,16.7c0,0,9.2,2.2,13,1.7s22.3-15.4,23-16.2s12.3-9.2,12.3-9.2l8-5.8c0,0,14.7-1.4,22.1-2.4
				C1067.1,278.1,1066.1,270.9,1066.1,270.9z"/>
		</g>
		<polygon id="Icare" points="558.7,133.8 585.2,133.8 578.5,196.7 558.7,194.4 		"/>
		<polygon class="st1" points="546.8,152.2 546.8,133.8 489.8,133.8 483.8,152.2 488.1,152.2 488.5,149.5 541.6,149.6 541.5,152.2 
					"/>
		<polygon class="st1" points="474.3,182.4 473.3,185.1 546.8,193.4 546.8,182.4 		"/>
		<polygon class="st1" points="476.7,133.8 461.4,183.9 416.9,179.4 416.9,133.8 435.9,134.5 435.9,158.9 461.4,159.5 462.2,133.8 
					"/>
		<polygon id="New_Brownie" points="391.8,143 392.5,133.8 372.7,133.8 354.4,152.2 323.3,152.2 335,171.3 405.3,178.5 405.3,143 		
			"/>
		<polygon class="st1" points="312.6,156.2 309,157.8 309,165.3 317.4,165.3 319.8,168.8 238.2,160.1 238.2,153.3 309.7,153.3 		"/>
		<path class="st1" d="M196.6,153.3c-1.6,0.5-1.6,1.4-1.6,1.4s0.5,1,1.6,1.2c1.1,0.1,15.8,1.7,15.8,1.7v-4.3L196.6,153.3
			L196.6,153.3z"/>
		<polygon class="st1" points="661.9,133.5 635.4,133.5 642.1,196.3 661.9,194.1 		"/>
		<polygon class="st1" points="673.8,151.9 673.8,133.5 730.8,133.5 736.8,151.9 732.4,151.9 732.1,149.1 679,149.3 679.1,151.9 		
			"/>
		<polygon class="st1" points="746.3,182.1 747.3,184.7 673.8,193.1 673.8,182.1 		"/>
		<polygon class="st1" points="743.9,133.5 759.2,183.6 803.6,179.1 803.6,133.5 784.7,134.1 784.7,158.5 759.2,159.1 758.4,133.5 
					"/>
		<polygon class="st1" points="828.8,142.7 828.1,133.5 847.9,133.5 866.1,151.9 897.3,151.9 885.6,170.9 815.2,178.1 815.2,142.7 
					"/>
		<polygon class="st1" points="908,155.8 911.6,157.5 911.6,164.9 903.2,164.9 900.8,168.4 982.4,159.8 982.4,153 910.9,153 		"/>
		<path class="st1" d="M1024,153c1.6,0.5,1.6,1.4,1.6,1.4s-0.5,1-1.6,1.2c-1.1,0.1-15.8,1.7-15.8,1.7V153H1024z"/>
		<circle class="st1" cx="285.4" cy="200.1" r="5.7"/>
		<circle class="st1" cx="513.1" cy="104.5" r="5.7"/>
		<circle class="st1" cx="513.1" cy="81.8" r="5.7"/>
		<circle class="st1" cx="513.1" cy="60.1" r="5.7"/>
		<circle class="st1" cx="513.1" cy="37.3" r="5.7"/>
		<circle class="st1" cx="706.9" cy="104.5" r="5.7"/>
		<circle class="st1" cx="934.8" cy="199.9" r="5.7"/>
		<circle class="st1" cx="936.8" cy="218.9" r="5.7"/>
		<circle class="st1" cx="938.9" cy="237.9" r="5.7"/>
		<circle class="st1" cx="941" cy="256.8" r="5.7"/>
		<circle class="st1" cx="706.9" cy="81.8" r="5.7"/>
		<circle class="st1" cx="706.9" cy="60.1" r="5.7"/>
		<circle class="st1" cx="706.9" cy="37.3" r="5.7"/>
		<circle class="st1" cx="283.1" cy="218.8" r="5.7"/>
		<circle class="st1" cx="280.9" cy="237.9" r="5.7"/>
		<circle class="st1" cx="279.3" cy="257.1" r="5.7"/>
		<path class="st1" d="M159.5,224.5l-5.3,45.8l4.3,6.2l85.4,9.2l5.9,4.9l-5.9-2.7l-86-9.2c-4.3-1-18.9-6.6-18.9-19.7
			c0-4,0.2-8,1.7-11.4c2.8-6.2,9.2-12.9,9.2-12.9L159.5,224.5z"/>
		<path class="st1" d="M959.5,285.9l57.5-6.1c0,0,2.9-0.4,3.7,1.9s-0.8,3.6-0.8,3.6l-21,15.5c0,0-3.4,2-7.7,3.1
			c-2.7,0.6-4.9,0.8-7.5,0.6c-1.4-0.1-23.6-4.5-23.6-4.5s-3-0.4-3.2-2.7c-0.2-2.3-0.6-6.1-0.8-8.9
			C956,286.3,959.5,285.9,959.5,285.9z"/>
		<path class="st1" d="M655.6,458.5l2,15.3L847.8,454l-1.6-15.7l2-0.2c0,0,1-0.1,1.1,0.8s2.3,19.4,2.3,19.4l-64,6l4.8,42.8
			l59.2,15.5l-3.4-32.6l4.9-0.1l11.7,109.9l198.1-20.8l-1.7-16.3l82-8.5v110.6H948.4l-76.9-38.6c0,0-2.1-0.4-4-2.3
			s-94.1-109.6-94.1-109.6s-4.6-7.6-11.4-9.5S651.1,474,651.1,474s-8-1.1-8-7.6s7.2-8,7.2-8L655.6,458.5z"/>
		<path class="st1" d="M561.7,411.8c0,0,7.9,2.1,10.8,6.7s3.8,8.4,3.8,8.4v57.6c0,0-1.9,11-8.4,14.8s-12,4.3-12,4.3l-75-19.4
			l-85.2-37c0,0-6.7-3.4-9.3-3.8c-2.6-0.3-68.3-18.1-68.3-18.1S289.9,418,288,417s-8.7-4.3-12-9.8c-2.6-5.8-4.1-8.3-4.1-16l2.3-18.5
			l3.1,0.4l-1.6,15.9L561,419.5L561.7,411.8z"/>
		<path class="st1" d="M733.7,293.9l130-13.4l37.7-4.1c0,0,1.6-0.2,3,0s24.2,4.8,24.2,4.8s2.5,0.4,2.7,2.4s0.7,7.1,0.7,7.1
			s0.2,1.2-0.9,2.1c-1,0.9-2.9,1.1-2.9,1.1l-44.4-8.8l-2-0.6c-3,0.2-3,0.2-3,0.2l-109.7,11.6c0,0-3.7,0.3-5.4,1.9
			c-1.6,1.6-9.7,9.8-9.7,9.8s-2.6,2-4.8,2.9s-4.4,1.6-4.4,1.6l-9.7,1c0,0-1.4,0.1-2.2-0.9s-0.8-2.3-0.8-2.3l-1.2-13.2
			c0,0,0-1.1,0.8-1.9S733.7,293.9,733.7,293.9z"/>
		<path class="st1" d="M146,374.8l113.4,12.5l1.9-15.6l2.9,0.4l-2.7,26.8c0,0-1,8.2-6.8,14.1s-14.9,7.6-14.9,7.6s-3.6,0.3-7.4,0
			c-3.9-0.3-33.4-3.7-33.4-3.7L88.8,387.3c0,0-2.1,0-2.4-2.6c-0.4-2.6,1.2-3,1.2-3s9.2-5.9,15.9-12.1c6.7-6.2,12.2-12.9,12.2-12.9
			l14.1,1c0,0,6.8-7.4,11.6-17.5c4.8-10,8.2-19.1,8.2-19.1l1.7-14.5c0,0,0.1-1.7,1.3-1.4c1.2,0.3,1,1.8,1,1.8L146,374.8z"/>
		<path class="st1" d="M296.8,274.1c0,0,185.4,19.7,187.9,19.9c5.4,0.6,4.3,5.8,4.3,5.8l-1.2,10.9c0,0,0,0.9-0.7,2.1
			c-0.8,1.2-3.8,0.6-3.8,0.6l-10.5-1.2c-3.5-0.3-6.9-3.4-8.8-5.4s-7.1-7.5-7.1-7.5s-3.4-2-7.4-2.4c-3.9-0.4-121.9-13-121.9-13
			s-4.6-0.3-6.9,1.2s-11,7.4-11,7.4s-3.4,1.5-5.8,1.3c-4.6-0.4-13.1-1.1-12.9-1.1c-2.5,0-2.8-2.4-2.8-3.3s1.6-13.2,1.6-13.2
			s0.1-1.2,1.2-2S296.8,274.1,296.8,274.1z"/>
		<path class="st2" d="M566.1,368.8l-1.7,15.5c0,0,39.1,4.5,45.9,4.5c6.8,0,45.4-4.5,45.4-4.5l-1.5-15.5l182.2-19.3l2,15.5l1.8-0.2
			c0,0,1.2-0.1,1-1.5c-0.1-1.4-3.3-31.9-3.3-31.9s-0.5-1.5-1.4-1.4s-1.9,0.2-1.9,0.2l1.9,15.9l-94.9,10l-1.4-15.7l-4.2,1.2
			c0,0-1.9,0.6-2.4,1.5s-4,7.4-4,7.4s-1,1.8-2.9,2.2c-1.9,0.4-16.3,3.9-18.9,4.4c-2.6,0.4-15.3,2.5-16.8,2.7
			c-1.4,0.2-23.4,2.5-23.4,2.5s-2,0.2-3.3-0.5s-8.4-4.7-8.4-4.7s-1.7-1.4-3.3-1.2c-1.6,0.2-27.8,2.4-32.3,2.5
			c-4.4,0.1-25.9-0.1-31.2-0.6c-5.3-0.4-20.3-1.9-20.3-1.9s-1.3-0.5-2.9,0.4s-9.4,5.5-9.4,5.5s-0.7,0.8-3.5,0.6s-17.7-1.9-17.7-1.9
			l-14.5-2.1l-10.7-2l-11.4-2.6l-4.8-1.3c0,0-1.3,0.2-2.6-1.9c-1.3-2.1-4.1-7.3-4.1-7.3s-1.2-1.5-1.9-1.8s-4.5-1.3-5.1-1.3
			c-0.6-0.1-1.9,16-1.9,16L281.1,335l1.9-15.9l-3-0.2l-3.8,34.9l2.8,0.3l1.9-16L566.1,368.8z"/>
		<path class="st2" d="M871.3,435.6c0,0-2.5,0.1-2.5,2.4c0.1,2.3,3.1,29.6,3.1,29.6s0.7,2.8,3.2,2.7l-1.9-16.2l56-6l1.9,16l2.3,19.1
			l-0.6,0.1l1.8,16l-55.7,5.7l-1.7-15.7c0,0-2.6,0.3-2.4,2.8c0.2,2.5,1.5,13.5,1.5,13.5s0.8,2.8,2.9,2.6
			c2.1-0.2,239.8-25.6,239.8-25.6s2.9-0.1,3.5-0.9s0.6-2.3,0.6-2.3l-1.4-13.5c0,0-0.1-0.9-0.9-1.5s-2.1-0.7-2.1-0.7l-3,0.3l1.7,16.2
			L1005.7,492l-1.7-16.1l-2.5,0.3l1.1,11l-1.5,0.2l-2.8-30.2l3.8-0.4l-1.6-16.1l111.6-11.9l1.8,16.2l3.2-0.4c0,0,1.2,0.2,1.7-1.2
			c0.5-1.4,0.4-2.2,0.4-2.2l-3.1-29c0,0-0.4-1.2-0.9-1.5c-0.5-0.2-2-0.8-2-0.8l-3.3,0.3l1.8,16L999.9,438l-1.6-16.2l-2.6,0.3
			l-68.1,7.5l1.7,15.9l-56.3,6.1L871.3,435.6z"/>
		<path class="st2" d="M882.5,542.3l-1.8-15.8c0,0-2.5,0.7-2.4,2.2c0.1,1.6,3,30,3,30s0.4,2.5,2.7,2.6l-1.6-16L1121,520l1.9,15.9
			l3.1-0.3c0,0,1.1-0.3,1.8-1.1c0.7-0.9,0.7-2.1,0.7-2.1l-3-28.9c0,0-0.2-1.2-0.8-1.6c-0.6-0.5-2.3-0.9-2.3-0.9l-3.1,0.4l1.7,16.1
			L882.5,542.3z"/>
		<path class="st2" d="M867.4,397.3l-1.8-15.8c0,0-2.5,0.7-2.4,2.2c0.1,1.6,3,30,3,30s0.4,2.5,2.7,2.6l-1.6-16l238.5-25.3l1.9,15.9
			l3.1-0.3c0,0,1.1-0.3,1.8-1.1c0.7-0.9,0.7-2.1,0.7-2.1l-3-28.9c0,0-0.2-1.2-0.8-1.6c-0.6-0.5-2.3-0.9-2.3-0.9l-3.1,0.4l1.7,16.1
			L867.4,397.3z"/>
		<path class="st2" d="M1058,306.6l-28.4,3c0,0-3,0.5-4.1,1.5c-1.2,1-15.7,12.7-24.4,15s-16.1,2.8-23.2,1.8
			c-7.1-1-41.2-8.1-41.2-8.1s-0.7-0.3-1.3-0.2s-3.5,0.4-3.5,0.4l1.6,15.9l-71.8,7.5l-1.6-15.6c0,0-3,0.2-2.8,2.6s3,29.5,3,29.5
			s0.5,3.1,3.3,2.9l-1.7-16.4L996.8,332l1.9,16l63.3-6.7l-1.7-15.9l39.8-4.1l1.7,15.8l3.3-0.4c0,0,1.1,0,2.1-1.2s0.7-1.7,0.7-1.7
			l-3.2-29.6c0,0,0.2-0.5-1-1.4s-2.4-0.8-2.4-0.8l-2.8,0.3l1.7,16.1l-40.1,4.1"/>
		<path class="st2" d="M645.8,439.7l-1.7-15.6L842.3,403l1.9,15.8c0,0,2.9,0.1,2.7-3s-3.1-29.2-3.1-29.2s-0.3-2.6-3-2.5l1.7,16.1
			l-182.9,19.2l-1.4-15.8c0,0-12.4,2.5-16.2,11.3s-3.2,9.1-3.2,13.1s0.1,9.5,2.7,10.6C643.9,439.9,645.8,439.7,645.8,439.7z"/>
		<path class="st2" d="M16.4,340.8v24.9c0,0,3.4,1.2,15.1,0c11.6-1.2,16.1-2.8,16.1-2.8l-19.1-6.1c0,0-4.6-1.6-7.5-5.4
			C17.9,347.4,16.4,340.8,16.4,340.8z"/>
		<path class="st2" d="M26.2,337.4c0,2.2-0.4,4.9,2.6,8.1S61,355.8,61,355.8s2.3,0.4,5.2-0.9c2.9-1.3,8.4-4.8,11.5-7.7
			c5.9-5.3,16.9-16.7,18.2-22.4c0,0,0.9-1.6-0.5-3.4s-3.3-2.3-3.3-2.3h-7.8v16.3l-56.2,0.1C28.1,335.5,26.3,335.2,26.2,337.4z"/>
		<polygon class="st2" points="43.2,301.8 41.5,301.8 41.5,282.5 105.2,282.4 103.2,301.8 99.6,301.8 99.6,285.3 43.1,285.3 		"/>
		<path class="st2" d="M111.9,215.7l8.1-79.2V65.7h-3.4l0.3,15.9H37.3V65.7h-1.9v35.2l1.9-0.1V84.7l79.8,0.2l0.2,51H37.4v-16.1
			l-2,0.1V136H21.2v-16.2l-4.8,0.1v25.8l71.2-0.1c0,0,11.5,0.7,15.6,8s3.1,11.1,3.1,11.1l0.5,50.9L111.9,215.7L111.9,215.7z"/>
		<path class="st2" d="M137.2,163.7h5.7l-4.9,47.7c0,0-0.4,3.4-2.9,3.3c-2.5-0.1-3.1-4.1-3.1-4.1L137.2,163.7z"/>
		<path class="st3" d="M125.6,291.6c0,0,4.3-3.8,7.2-5.8c2.9-2,8.4-4.3,8.4-4.3s-7.3-8.8-8.4-11.6c-1-2.8-2.3-7.1-2.7-9.5
			c-0.2-1.6-0.3-7.7-0.3-7.7h-0.6l-4.1,38.6L125.6,291.6z"/>
		<path class="st3" d="M581.7,396.2c0,0,12.6,0.2,20.8,10.8c6.2,8,6.7,12.4,6.7,12.4l1.1,7.9h0.6c0,0,0.5-5.9,0.9-7.2
			c0.4-1.3,3.9-11,8.5-14.9c2.4-2,3-3.2,6.3-4.8c0,0,6.9-3.7,12.5-4.1v-0.6h-57.3L581.7,396.2L581.7,396.2z"/>
	</g>
</g>
<g id="Camada_5">
</g>
<g id="landmarks-small-first">
	<polygon id="Ciao" points="493.8,290.9 490.6,318 566.9,325.7 570.1,299.3 	"/>
	<polygon id="Brands_House" points="579.1,220 570.1,299.3 493.8,290.9 502.5,211.3 	"/>
	<polygon id="New_Balance" points="451.6,206.2 442.9,285.7 493.8,290.9 502.5,211.3 	"/>
	<polygon id="Alleatory" points="426.1,203.6 451.6,206.2 442.9,285.7 417.8,283.2 	"/>
	<polygon id="Surf_Co" points="400.8,201 426.1,203.6 417.8,283.2 392.5,280.6 	"/>
	<polygon id="Artex" points="375.6,198 367,277.7 392.5,280.6 400.8,201 	"/>
	<polygon id="Beagle" points="349.8,195.4 341.6,275.3 367,277.7 375.6,198 	"/>
	<polygon id="Kipling" points="299.4,189.9 296.8,216.6 322.1,219.2 316.4,272.4 341.6,275.3 349.8,195.4 	"/>
	<polygon id="Drogamar" points="291,269.5 316.4,272.4 322.1,219.2 296.8,216.6 	"/>
	<polygon id="Trifil" points="238.5,279.6 263.8,282.5 266.7,256.1 241.1,253.2 	"/>
	<polygon id="Lordman" points="244,226.8 241.1,253.2 266.7,256.1 269.6,229.4 	"/>
	<polygon id="Ingá_Vinhos" points="249.9,173.5 244,226.8 269.6,229.4 275.2,176 	"/>
	<polygon id="Polo_Wear" points="173.5,165.3 249.9,173.5 238.5,279.6 162.2,271.3 	"/>
	<polygon id="Caixa_Economica" points="175.3,130.3 227,130.3 227,49.6 201.2,49.6 201.2,83.7 175.3,83.3 	"/>
	<rect id="Lojas_Americanas" x="227" y="49.6" width="50.9" height="80.7"/>
	<polygon id="Carmen_Steffans" points="329.2,50.2 329.2,76.7 303.4,76.7 303.4,130.3 277.9,130.3 277.9,49.6 	"/>
	<polygon id="Sonho_dos_Colchões" points="329.2,103.6 303.6,103.6 303.4,76.7 329.2,76.7 	"/>
	<polyline id="Yes_Cosmét" points="329.2,130.3 303.4,130.3 303.6,103.6 329.2,103.6 	"/>
	<polygon id="McDonalds" points="42,188 42,267.9 106,267.9 106,236.7 109.9,236.8 109.9,216.6 106.2,216.6 105.5,188 	"/>
	<rect id="Zizane" x="371.8" y="30.9" width="51.2" height="80.2"/>
	<rect id="Loja_11" x="423" y="30.9" width="25.9" height="80.2"/>
	<rect id="TNG" x="448.8" y="30.9" width="51" height="80.2"/>
	<rect id="Ocullum" x="439.4" y="137.5" width="18.6" height="18.4"/>
	<rect id="Delta_Cafe" x="491.6" y="152.2" width="23.2" height="30.2"/>
	<rect id="Time_Center" x="514.8" y="152.2" width="23.4" height="30.2"/>
	<rect id="Crocs" x="682" y="152.2" width="23" height="30.2"/>
	<rect id="Vagamundo" x="704.9" y="152.2" width="23.9" height="30.2"/>
	<rect id="Cheirin_Bão" x="761.7" y="137.2" width="18.4" height="18.8"/>
	<rect id="Feeling" x="720.4" y="30.9" width="25.6" height="27.1"/>
	<polygon id="Guess" points="720.4,111.1 771.4,111.1 771.4,30.9 746,30.9 746,58 720.4,58 	"/>
	<polygon id="Levis" points="822.6,111.1 822.6,71 796.8,71 796.8,30.9 771.4,30.9 771.4,111.1 	"/>
	<polygon id="Ad_Fashion" points="848.2,111.1 848.2,30.9 796.8,30.9 796.8,71 822.6,71 822.6,111.1 	"/>
	<polygon id="Spicy" points="641.2,219.6 644.3,246.2 695,240.6 692.1,213.8 	"/>
	<polygon id="Mitchell" points="697.9,267 695,240.6 644.3,246.2 647,273 	"/>
	<polygon id="Aramis" points="723.5,264.6 728.9,318 652.5,325.7 647,273 	"/>
	<polygon id="Tommy_Hilfiger" points="742.9,209 751.6,288.7 726.3,291.9 723.5,264.6 697.9,267 692.1,213.8 	"/>
	<polygon id="Tiptop" points="768.2,206.1 776.9,285.6 751.6,288.7 742.9,209 	"/>
	<polygon id="Hering" points="793.6,203.4 798.4,246.2 823.3,243.3 827.7,280.5 776.9,285.6 768.2,206.1 	"/>
	<polygon id="New_Era" points="819,200.5 823.3,243.3 798.4,246.2 793.6,203.4 	"/>
	<polygon id="Live_x21_" points="844.1,198.1 853.1,278.1 827.7,280.5 819,200.5 	"/>
	<polygon id="Diesel" points="895.3,193 901.4,246.2 875.3,248.8 878.4,275.2 853.1,278.1 844.1,198.1 	"/>
	<polygon id="Lacoste" points="920.7,190.1 929.6,270.6 878.4,275.2 875.3,248.8 901.4,246.2 895.3,193 	"/>
	<rect id="Calvin_Klein" x="891" y="49.8" width="50.7" height="80.7"/>
	<rect id="MMartan" x="941.7" y="49.8" width="25.6" height="80.7"/>
	<rect id="Loja123" x="967.3" y="49.8" width="25.6" height="80.7"/>
	<rect id="Rabithos_00000170239151881000594620000016140963223798386314_" x="992.9" y="49.8" width="25.6" height="80.7"/>
	<rect id="Shineray_Motors" x="1018.6" y="83.3" width="25.6" height="47.1"/>
	<polygon id="Clube_Marisol" points="944.8,176.5 956.4,282.8 1006.6,278.1 1001.2,223.4 975.6,226.2 970,173.8 	"/>
	<polygon id="Lupo_Scala" points="995.8,170.9 1001.2,223.4 975.6,226.2 970,173.8 	"/>
	<polygon id="Le_Biscuit" points="1046.6,165.7 1058,271.7 1006.6,278.1 995.8,170.9 	"/>
	<path id="Fred_Chicken" d="M787.6,464.4l4.8,42.8l59.2,15.5c0,0-4.1-32.6-3.4-32.6c0.7,0,3.4-0.2,3.4-0.2v-31.4L787.6,464.4z"/>
	<polygon id="R2" points="937.4,493.6 1001.9,486.8 995.4,421.8 930.4,428.8 934,463.9 930.4,464.4 932.8,483.5 936.4,483 	"/>
	<rect id="Q1" x="213.3" y="152.2" width="12.3" height="7.5"/>
	<rect id="ZS_Autos" x="298.3" y="156" width="13.3" height="8.3"/>
	<rect id="Q3" x="392.5" y="133.8" width="12.9" height="8.5"/>
	<polygon id="Q4" points="417.8,171.3 417.8,179 429.8,180.2 429.8,171.3 	"/>
	<rect id="Empadinha_Barnabe" x="580.3" y="180.2" width="9.9" height="9.7"/>
	<rect id="Chili_Brans" x="605.2" y="159.5" width="9.7" height="9.4"/>
	<rect id="Casa_Do_Sorvete" x="605.2" y="136.5" width="9.7" height="10.1"/>
	<rect id="Salsh_x26_Pão" x="630" y="180.2" width="9.7" height="9.7"/>
	<polygon id="Tea_One" points="603.5,246.2 610,252.5 616.8,246.2 610,239.3 	"/>
	<rect id="Sweet_Acai" x="605.2" y="180.5" width="9.7" height="9.9"/>
	<polygon id="Confraria_do_Chopp" points="603.5,272.4 610,278.8 616.8,272.4 610,265.8 	"/>
	<rect id="Q15" x="593.1" y="299.3" width="10.4" height="9"/>
	<rect id="Q14" x="616.8" y="299.3" width="9.9" height="9"/>
	<polygon id="Q5" points="790.2,171.3 790.2,180.2 802.7,178.8 802.7,171.3 	"/>
	<rect id="Banca_Auto" x="815.3" y="134" width="12.4" height="7.6"/>
	<rect id="Mary_Malta" x="908.7" y="156.1" width="12.6" height="7.9"/>
	<rect id="Q8" x="994.4" y="152.2" width="12.2" height="7.8"/>
	<rect id="FF01" x="552" y="30.9" width="25.7" height="18.1"/>
	<rect id="FF02" x="552" y="49" width="25.7" height="18.4"/>
	<polygon id="Urban" points="552,94.2 552,76.1 577.7,76.1 577.7,111.1 552,111.1 552,104.9 543.5,104.9 543.5,94.2 	"/>
	<rect id="FF05" x="642.4" y="32" width="25.3" height="12.4"/>
	<rect id="FF06" x="642.4" y="44.4" width="25.3" height="13.8"/>
	<rect id="Comedoria_Telheiros" x="642.4" y="58.2" width="25.3" height="12.8"/>
	<rect id="PH_Burguer" x="642.4" y="71" width="25.3" height="14"/>
	<rect id="FF09" x="642.4" y="85" width="25.3" height="13.7"/>
	<rect id="Doçuda" x="642.4" y="98.7" width="25.3" height="12.4"/>
</g>
</svg>
